<mxfile host="app.diagrams.net" modified="2020-04-21T00:32:40.534Z" agent="5.0 (Macintosh; Intel Mac OS X 10_14_6) AppleWebKit/537.36 (KHTML, like Gecko) Chrome/80.0.3987.163 Safari/537.36" etag="gNOKT41LasxfPoAGLYXy" version="12.9.14" type="github">
  <diagram id="C5RBs43oDa-KdzZeNtuy" name="Page-1">
    <mxGraphModel dx="1404" dy="768" grid="1" gridSize="10" guides="1" tooltips="1" connect="1" arrows="1" fold="1" page="1" pageScale="1" pageWidth="827" pageHeight="1169" math="0" shadow="0">
      <root>
        <mxCell id="WIyWlLk6GJQsqaUBKTNV-0" />
        <mxCell id="WIyWlLk6GJQsqaUBKTNV-1" parent="WIyWlLk6GJQsqaUBKTNV-0" />
        <mxCell id="n3JwakIq0Zq1YC6O617z-7" style="edgeStyle=orthogonalEdgeStyle;rounded=0;orthogonalLoop=1;jettySize=auto;html=1;entryX=0.5;entryY=0;entryDx=0;entryDy=0;" edge="1" parent="WIyWlLk6GJQsqaUBKTNV-1" source="n3JwakIq0Zq1YC6O617z-0" target="n3JwakIq0Zq1YC6O617z-1">
          <mxGeometry relative="1" as="geometry" />
        </mxCell>
        <mxCell id="n3JwakIq0Zq1YC6O617z-0" value="Project Kickoff" style="rounded=1;whiteSpace=wrap;html=1;" vertex="1" parent="WIyWlLk6GJQsqaUBKTNV-1">
          <mxGeometry x="200" y="40" width="120" height="60" as="geometry" />
        </mxCell>
        <mxCell id="n3JwakIq0Zq1YC6O617z-8" style="edgeStyle=orthogonalEdgeStyle;rounded=0;orthogonalLoop=1;jettySize=auto;html=1;" edge="1" parent="WIyWlLk6GJQsqaUBKTNV-1" source="n3JwakIq0Zq1YC6O617z-1" target="n3JwakIq0Zq1YC6O617z-2">
          <mxGeometry relative="1" as="geometry" />
        </mxCell>
        <mxCell id="n3JwakIq0Zq1YC6O617z-1" value="Requirements Definition" style="rounded=1;whiteSpace=wrap;html=1;" vertex="1" parent="WIyWlLk6GJQsqaUBKTNV-1">
          <mxGeometry x="200" y="140" width="120" height="60" as="geometry" />
        </mxCell>
        <mxCell id="n3JwakIq0Zq1YC6O617z-9" style="edgeStyle=orthogonalEdgeStyle;rounded=0;orthogonalLoop=1;jettySize=auto;html=1;entryX=0.5;entryY=0;entryDx=0;entryDy=0;" edge="1" parent="WIyWlLk6GJQsqaUBKTNV-1" source="n3JwakIq0Zq1YC6O617z-2" target="n3JwakIq0Zq1YC6O617z-3">
          <mxGeometry relative="1" as="geometry" />
        </mxCell>
        <mxCell id="n3JwakIq0Zq1YC6O617z-2" value="Conceptual Design" style="rounded=1;whiteSpace=wrap;html=1;" vertex="1" parent="WIyWlLk6GJQsqaUBKTNV-1">
          <mxGeometry x="200" y="240" width="120" height="60" as="geometry" />
        </mxCell>
        <mxCell id="n3JwakIq0Zq1YC6O617z-10" style="edgeStyle=orthogonalEdgeStyle;rounded=0;orthogonalLoop=1;jettySize=auto;html=1;entryX=0.5;entryY=0;entryDx=0;entryDy=0;" edge="1" parent="WIyWlLk6GJQsqaUBKTNV-1" source="n3JwakIq0Zq1YC6O617z-3" target="n3JwakIq0Zq1YC6O617z-4">
          <mxGeometry relative="1" as="geometry" />
        </mxCell>
        <mxCell id="n3JwakIq0Zq1YC6O617z-3" value="Detailed Design" style="rounded=1;whiteSpace=wrap;html=1;" vertex="1" parent="WIyWlLk6GJQsqaUBKTNV-1">
          <mxGeometry x="200" y="340" width="120" height="60" as="geometry" />
        </mxCell>
        <mxCell id="n3JwakIq0Zq1YC6O617z-11" style="edgeStyle=orthogonalEdgeStyle;rounded=0;orthogonalLoop=1;jettySize=auto;html=1;entryX=0.5;entryY=0;entryDx=0;entryDy=0;" edge="1" parent="WIyWlLk6GJQsqaUBKTNV-1" source="n3JwakIq0Zq1YC6O617z-4" target="n3JwakIq0Zq1YC6O617z-5">
          <mxGeometry relative="1" as="geometry" />
        </mxCell>
        <mxCell id="n3JwakIq0Zq1YC6O617z-4" value="Implementation&lt;span style=&quot;font-family: monospace ; font-size: 0px&quot;&gt;%3CmxGraphModel%3E%3Croot%3E%3CmxCell%20id%3D%220%22%2F%3E%3CmxCell%20id%3D%221%22%20parent%3D%220%22%2F%3E%3CmxCell%20id%3D%222%22%20value%3D%22Project%20Kickoff%22%20style%3D%22rounded%3D1%3BwhiteSpace%3Dwrap%3Bhtml%3D1%3B%22%20vertex%3D%221%22%20parent%3D%221%22%3E%3CmxGeometry%20x%3D%22200%22%20y%3D%2280%22%20width%3D%22120%22%20height%3D%2260%22%20as%3D%22geometry%22%2F%3E%3C%2FmxCell%3E%3C%2Froot%3E%3C%2FmxGraphModel%3E&lt;/span&gt;" style="rounded=1;whiteSpace=wrap;html=1;" vertex="1" parent="WIyWlLk6GJQsqaUBKTNV-1">
          <mxGeometry x="200" y="440" width="120" height="60" as="geometry" />
        </mxCell>
        <mxCell id="n3JwakIq0Zq1YC6O617z-12" style="edgeStyle=orthogonalEdgeStyle;rounded=0;orthogonalLoop=1;jettySize=auto;html=1;entryX=0.5;entryY=0;entryDx=0;entryDy=0;" edge="1" parent="WIyWlLk6GJQsqaUBKTNV-1" source="n3JwakIq0Zq1YC6O617z-5" target="n3JwakIq0Zq1YC6O617z-6">
          <mxGeometry relative="1" as="geometry" />
        </mxCell>
        <mxCell id="n3JwakIq0Zq1YC6O617z-5" value="Verify &amp;amp; Validate" style="rounded=1;whiteSpace=wrap;html=1;" vertex="1" parent="WIyWlLk6GJQsqaUBKTNV-1">
          <mxGeometry x="200" y="540" width="120" height="60" as="geometry" />
        </mxCell>
        <mxCell id="n3JwakIq0Zq1YC6O617z-6" value="Project Conclusion" style="rounded=1;whiteSpace=wrap;html=1;" vertex="1" parent="WIyWlLk6GJQsqaUBKTNV-1">
          <mxGeometry x="200" y="640" width="120" height="60" as="geometry" />
        </mxCell>
        <mxCell id="n3JwakIq0Zq1YC6O617z-14" value="Dependencies:&lt;br&gt;&lt;ul&gt;&lt;li&gt;Hiring of project team: Management, Fundraising.&lt;/li&gt;&lt;li&gt;Startup funding strategy.&lt;/li&gt;&lt;/ul&gt;" style="shape=note;whiteSpace=wrap;html=1;backgroundOutline=1;darkOpacity=0.05;align=left;" vertex="1" parent="WIyWlLk6GJQsqaUBKTNV-1">
          <mxGeometry x="340" y="20" width="200" height="100" as="geometry" />
        </mxCell>
        <mxCell id="n3JwakIq0Zq1YC6O617z-15" value="Dependencies:&lt;br&gt;&lt;ul&gt;&lt;li&gt;Hiring of project team: Strategy, Coordinators for Ghana &amp;amp; USA.&lt;/li&gt;&lt;li&gt;Project Plan.&lt;/li&gt;&lt;/ul&gt;" style="shape=note;whiteSpace=wrap;html=1;backgroundOutline=1;darkOpacity=0.05;align=left;" vertex="1" parent="WIyWlLk6GJQsqaUBKTNV-1">
          <mxGeometry x="-20" y="140" width="200" height="100" as="geometry" />
        </mxCell>
        <mxCell id="n3JwakIq0Zq1YC6O617z-17" value="Dependencies:&lt;br&gt;&lt;ul&gt;&lt;li&gt;Hiring of project team: .&lt;/li&gt;&lt;li&gt;Startup funding strategy.&lt;/li&gt;&lt;/ul&gt;" style="shape=note;whiteSpace=wrap;html=1;backgroundOutline=1;darkOpacity=0.05;align=left;" vertex="1" parent="WIyWlLk6GJQsqaUBKTNV-1">
          <mxGeometry x="340" y="240" width="200" height="100" as="geometry" />
        </mxCell>
        <mxCell id="n3JwakIq0Zq1YC6O617z-18" value="Dependencies:&lt;br&gt;&lt;ul&gt;&lt;li&gt;&lt;span&gt;Conceptual designs: business model, organization structure.&lt;/span&gt;&lt;br&gt;&lt;/li&gt;&lt;/ul&gt;" style="shape=note;whiteSpace=wrap;html=1;backgroundOutline=1;darkOpacity=0.05;align=left;" vertex="1" parent="WIyWlLk6GJQsqaUBKTNV-1">
          <mxGeometry x="-20" y="340" width="200" height="100" as="geometry" />
        </mxCell>
        <mxCell id="n3JwakIq0Zq1YC6O617z-19" value="Dependencies:&lt;br&gt;&lt;ul&gt;&lt;li&gt;Hiring of project team: Legal, accounting &amp;amp; recruitment in Ghana &amp;amp; USA + Team engagement company.&lt;/li&gt;&lt;li&gt;All documents, information &amp;amp; software required for legal &amp;amp; accounting activities.&lt;/li&gt;&lt;/ul&gt;" style="shape=note;whiteSpace=wrap;html=1;backgroundOutline=1;darkOpacity=0.05;align=left;" vertex="1" parent="WIyWlLk6GJQsqaUBKTNV-1">
          <mxGeometry x="340" y="440" width="200" height="140" as="geometry" />
        </mxCell>
        <mxCell id="n3JwakIq0Zq1YC6O617z-20" value="Dependencies:&lt;br&gt;&lt;ul&gt;&lt;li&gt;&lt;span&gt;All physical deliverables from previous phases.&lt;/span&gt;&lt;br&gt;&lt;/li&gt;&lt;li&gt;All KPIs corresponding to processes started by previous phases.&lt;/li&gt;&lt;/ul&gt;" style="shape=note;whiteSpace=wrap;html=1;backgroundOutline=1;darkOpacity=0.05;align=left;" vertex="1" parent="WIyWlLk6GJQsqaUBKTNV-1">
          <mxGeometry x="-20" y="540" width="200" height="140" as="geometry" />
        </mxCell>
        <mxCell id="n3JwakIq0Zq1YC6O617z-21" value="Dependencies:&lt;br&gt;&lt;ul&gt;&lt;li&gt;Hiring of project team: Ghana staff for monitoring &amp;amp; Evaluation&lt;/li&gt;&lt;li&gt;All project members with their long-term &amp;amp; short-term deliverables &amp;amp; KPIs.&lt;/li&gt;&lt;/ul&gt;" style="shape=note;whiteSpace=wrap;html=1;backgroundOutline=1;darkOpacity=0.05;align=left;" vertex="1" parent="WIyWlLk6GJQsqaUBKTNV-1">
          <mxGeometry x="340" y="640" width="200" height="130" as="geometry" />
        </mxCell>
      </root>
    </mxGraphModel>
  </diagram>
</mxfile>
